<?xml version="1.0" encoding="utf-8"?>
<!-- Generator: Adobe Illustrator 16.0.4, SVG Export Plug-In . SVG Version: 6.00 Build 0)  -->
<!DOCTYPE svg PUBLIC "-//W3C//DTD SVG 1.1//EN" "http://www.w3.org/Graphics/SVG/1.1/DTD/svg11.dtd">
<svg version="1.1" id="Layer_1" xmlns="http://www.w3.org/2000/svg" xmlns:xlink="http://www.w3.org/1999/xlink" x="0px" y="0px"
	 width="571.074px" height="198.44px" viewBox="0 0 571.074 198.44" enable-background="new 0 0 571.074 198.44"
	 xml:space="preserve">
<g>
	<polygon fill="#ED1C24" points="0.159,59.687 0,151.411 80.263,198.44 80.422,157.442 34.99,130.875 34.971,119.906 
		80.422,146.489 80.422,107.296 	"/>
	<polygon points="0.835,53.938 83.98,102.754 124.508,80.556 124.508,89.496 87.316,111.178 87.316,198.44 165.009,145.139 
		165.009,51.45 131.746,30.597 92.166,54.541 84.386,50.904 124.463,25.988 86.973,0 	"/>
</g>
<rect x="198.938" y="81.618" fill="none" width="372.135" height="106.287"/>
<text transform="matrix(1.0331 0 0 1 198.9385 106.5781)"><tspan x="0" y="0" fill="#ED1C24" font-family="'OpenSans-Extrabold'" font-size="32.843" letter-spacing="0.968">COMPUTER</tspan><tspan x="197.638" y="0" font-family="'OpenSans-Extrabold'" font-size="32.843" letter-spacing="0.968"> SCIENCE</tspan><tspan x="0" y="32.501" font-family="'OpenSans-Light'" font-size="21.8953" letter-spacing="3.872">UNIVERSITY OF MARYLAND</tspan></text>
</svg>
